Coordinates
version=1
nRows=15
nColumns=46
inDegrees=yes

Units are S.I. units (second, meters, Newtons, ...)
Angles are in degrees.

endheader
time	pelvis_tilt	pelvis_list	pelvis_rotation	pelvis_tx	pelvis_ty	pelvis_tz	bb_angle	bb_tx	bb_ty	bb_tz	hip_flexion_r	hip_adduction_r	hip_rotation_r	knee_angle_r	knee_angle_r_beta	ankle_angle_r	subtalar_angle_r	mtp_angle_r	crank_angle_r	hip_flexion_l	hip_adduction_l	hip_rotation_l	knee_angle_l	knee_angle_l_beta	ankle_angle_l	subtalar_angle_l	mtp_angle_l	crank_angle_l	lumbar_extension	lumbar_bending	lumbar_rotation	arm_flex_r	arm_add_r	arm_rot_r	elbow_flex_r	pro_sup_r	wrist_flex_r	wrist_dev_r	arm_flex_l	arm_add_l	arm_rot_l	elbow_flex_l	pro_sup_l	wrist_flex_l	wrist_dev_l
      7.50000000	    -18.43020910	     -5.57949371	      4.47661551	      0.37413168	      1.18390756	     -0.23675416	      0.00000000	      0.50000000	      0.00000000	      0.25000000	     60.83097378	     -8.89645775	     -5.14365018	    101.79042830	      1.77657812	     -6.84210265	     -2.10488358	      0.00000000	      0.00000000	     44.81614406	     -7.79660010	      1.82624606	     46.22851763	      0.80683984	      4.95977447	     -2.02599332	      0.00000000	      0.00000000	    -58.19805015	      4.99923874	      1.58657532	     54.28634548	    -28.00047339	     30.94185452	     73.74866547	     48.31394797	      0.00000000	      0.00000000	     61.86851724	    -38.96965530	     49.66234480	     77.89762167	     51.21700894	      0.00000000	      0.00000000
      7.50500000	    -18.56699516	     -5.92364124	      4.76617411	      0.37349558	      1.18249509	     -0.23892704	      0.00000000	      0.50000000	      0.00000000	      0.25000000	     62.11641979	     -9.27943718	     -5.26016406	    103.39611125	      1.80460258	     -5.12871814	     -1.57328235	      0.00000000	      0.00000000	     43.82767057	     -7.70255202	      2.24180759	     44.61203512	      0.77862690	      3.63155353	     -2.31453151	      0.00000000	      0.00000000	    -57.93220802	      5.88732296	      1.60550006	     54.60826498	    -28.15915898	     31.42497050	     73.78902916	     48.37974113	      0.00000000	      0.00000000	     61.19480620	    -39.13795490	     49.13876434	     78.08258291	     51.20181566	      0.00000000	      0.00000000
      7.51000000	    -18.65155669	     -6.39955543	      4.58550412	      0.37296419	      1.18145380	     -0.23921940	      0.00000000	      0.50000000	      0.00000000	      0.25000000	     63.42030885	     -8.95252174	     -5.38007816	    104.85631493	      1.83008794	     -3.67969174	     -1.84984073	      0.00000000	      0.00000000	     42.82087777	     -8.29245434	      2.18432408	     43.17489057	      0.75354399	      2.62918127	     -1.89288053	      0.00000000	      0.00000000	    -57.80903502	      6.37710402	      2.10960767	     54.86660797	    -28.15983015	     31.48330805	     73.83634356	     48.39231849	      0.00000000	      0.00000000	     61.01151440	    -39.29459576	     49.03545727	     78.08199976	     51.19487668	      0.00000000	      0.00000000
      7.51500000	    -18.65367305	     -6.53518585	      4.11580400	      0.37269025	      1.18083281	     -0.23965026	      0.00000000	      0.50000000	      0.00000000	      0.25000000	     64.67559958	     -8.63581736	     -4.98372356	    106.23434746	      1.85413914	     -2.05659352	     -1.08962437	      0.00000000	      0.00000000	     41.55441613	     -8.76941004	      1.54602298	     41.69832939	      0.72777314	      1.25567572	     -1.90647686	      0.00000000	      0.00000000	    -57.83125686	      6.55480511	      1.91641384	     56.08576932	    -28.15163387	     33.50457082	     73.40410599	     48.56625733	      0.00000000	      0.00000000	     58.75336748	    -39.59735769	     45.95274723	     79.09836429	     51.06510849	      0.00000000	      0.00000000
      7.52000000	    -18.75127590	     -6.91509212	      3.88197076	      0.37208874	      1.18003484	     -0.23960423	      0.00000000	      0.50000000	      0.00000000	      0.25000000	     66.00192800	     -8.35893497	     -5.08357978	    107.47582167	      1.87580695	     -0.85525573	     -1.23036971	      0.00000000	      0.00000000	     40.63787164	     -9.36322377	      1.28530058	     40.48449914	      0.70658781	      0.14302469	     -1.48207096	      0.00000000	      0.00000000	    -57.72869485	      6.88874443	      2.35766879	     56.37570522	    -28.10336491	     33.43457956	     73.41396224	     48.55869831	      0.00000000	      0.00000000	     58.64619908	    -39.76531863	     45.93844850	     79.05983713	     51.06049273	      0.00000000	      0.00000000
      7.52500000	    -18.79874136	     -7.01415175	      3.29292794	      0.37176151	      1.17976601	     -0.23940084	      0.00000000	      0.50000000	      0.00000000	      0.25000000	     67.32815308	     -7.95633040	     -4.73866822	    108.58835029	      1.89522424	      0.22783141	     -0.77956943	      0.00000000	      0.00000000	     39.49525188	     -9.95955029	      0.37862371	     39.23884874	      0.68484711	     -1.20480142	     -1.19596480	      0.00000000	      0.00000000	    -57.69361997	      6.74097657	      2.72210969	     56.60078679	    -28.05591470	     33.47891643	     73.35641280	     48.55678004	      0.00000000	      0.00000000	     58.35451799	    -39.83884812	     45.78255772	     79.06349659	     51.04847624	      0.00000000	      0.00000000
      7.53000000	    -18.89496298	     -7.18003180	      2.96776439	      0.37120024	      1.17948098	     -0.23932965	      0.00000000	      0.50000000	      0.00000000	      0.25000000	     68.64213364	     -7.77476491	     -4.66137670	    109.58114406	      1.91255176	      1.14341795	     -0.55583227	      0.00000000	      0.00000000	     38.58189374	    -10.42735992	     -0.18542480	     38.18753323	      0.66649819	     -2.43338134	     -0.78906738	      0.00000000	      0.00000000	    -57.68684583	      6.88955499	      3.06164381	     56.86210092	    -28.00787460	     33.50939181	     73.35579722	     48.56206727	      0.00000000	      0.00000000	     58.15647955	    -39.83813808	     45.55496073	     79.02948240	     51.02078020	      0.00000000	      0.00000000
      7.53500000	    -18.92710586	     -7.17787924	      2.19357063	      0.37072867	      1.17964474	     -0.23747599	      0.00000000	      0.50000000	      0.00000000	      0.25000000	     69.93162816	     -7.01734549	     -4.32189724	    110.41368125	      1.92708228	      2.14168922	     -0.62529746	      0.00000000	      0.00000000	     37.45553133	    -11.16855044	     -1.40975361	     37.15971463	      0.64855937	     -3.58982388	     -0.21269818	      0.00000000	      0.00000000	    -57.75632977	      6.41613816	      3.50699612	     57.08486914	    -27.86552796	     33.53102672	     73.35044718	     48.56672030	      0.00000000	      0.00000000	     58.04176817	    -39.85834837	     45.25687686	     78.96709774	     50.97998495	      0.00000000	      0.00000000
      7.54000000	    -18.95741150	     -7.26438278	      1.81409732	      0.37005287	      1.17987681	     -0.23711340	      0.00000000	      0.50000000	      0.00000000	      0.25000000	     71.03443090	     -6.67833594	     -4.23680170	    111.07877635	      1.93869038	      3.21288815	     -0.71738431	      0.00000000	      0.00000000	     36.53734360	    -11.63354440	     -2.15871597	     36.32774591	      0.63403878	     -4.73688387	      0.24453339	      0.00000000	      0.00000000	    -57.81829016	      6.41158498	      3.83475622	     57.36238530	    -27.82361878	     33.53108436	     73.37395767	     48.57392610	      0.00000000	      0.00000000	     57.91393704	    -39.75612104	     45.00096038	     78.88363212	     50.93945094	      0.00000000	      0.00000000
      7.54500000	    -19.05855635	     -7.35889977	      1.60187171	      0.36934451	      1.18002524	     -0.23702441	      0.00000000	      0.50000000	      0.00000000	      0.25000000	     72.23819595	     -6.64100697	     -4.24628440	    111.62335251	      1.94819502	      3.96596267	     -0.70117178	      0.00000000	      0.00000000	     35.81725263	    -11.97424439	     -2.67750568	     35.65871915	      0.62236206	     -5.85018439	      0.72227458	      0.00000000	      0.00000000	    -57.82072779	      6.57121216	      4.09310445	     57.64505984	    -27.76399620	     33.48695700	     73.44804003	     48.58048980	      0.00000000	      0.00000000	     57.84930477	    -39.68577666	     44.89993139	     78.81213014	     50.91723677	      0.00000000	      0.00000000
      7.55000000	    -19.21755148	     -7.43320396	      1.19394045	      0.36853787	      1.18045028	     -0.23659402	      0.00000000	      0.50000000	      0.00000000	      0.25000000	     73.39574703	     -6.33633314	     -4.23193587	    111.98931074	      1.95458220	      4.84763901	     -0.74506021	      0.00000000	      0.00000000	     35.13662233	    -12.39638084	     -3.34374133	     35.03850131	      0.61153721	     -7.02070790	      1.12373127	      0.00000000	      0.00000000	    -57.77731354	      6.54475145	      4.41639965	     57.90828689	    -27.67357261	     33.47166756	     73.53860280	     48.59257806	      0.00000000	      0.00000000	     57.78257565	    -39.61788659	     44.76555785	     78.69549121	     50.88425491	      0.00000000	      0.00000000
      7.55500000	    -19.23641643	     -7.23981677	      0.68560418	      0.36793800	      1.18118582	     -0.23584507	      0.00000000	      0.50000000	      0.00000000	      0.25000000	     74.45105324	     -6.06135877	     -3.91445669	    112.27713672	      1.95960571	      5.59778495	     -0.50644498	      0.00000000	      0.00000000	     34.28148374	    -12.72674944	     -4.49000608	     34.55436421	      0.60308743	     -8.08612159	      1.61061876	      0.00000000	      0.00000000	    -57.88123101	      6.23240276	      4.62962185	     58.01664228	    -27.58159798	     33.49440494	     73.63493808	     48.61669091	      0.00000000	      0.00000000	     57.63644464	    -39.32345778	     44.33160197	     78.35575718	     50.78274424	      0.00000000	      0.00000000
      7.56000000	    -19.33620908	     -7.22118200	      0.53272540	      0.36682538	      1.18183181	     -0.23545576	      0.00000000	      0.50000000	      0.00000000	      0.25000000	     75.49888075	     -5.98079168	     -3.91494003	    112.42635874	      1.96221013	      6.29037633	     -0.63901408	      0.00000000	      0.00000000	     33.80754866	    -12.97104754	     -4.99332290	     34.31697356	      0.59894418	     -9.15389959	      2.04616896	      0.00000000	      0.00000000	    -57.92479991	      6.30710589	      4.78547849	     58.28635752	    -27.47791331	     33.44249003	     73.77463851	     48.63261273	      0.00000000	      0.00000000	     57.69614257	    -39.23063161	     44.17221891	     78.22974477	     50.74416619	      0.00000000	      0.00000000
      7.56500000	    -19.38229403	     -7.03212179	      0.15545952	      0.36599270	      1.18284087	     -0.23464776	      0.00000000	      0.50000000	      0.00000000	      0.25000000	     76.45590213	     -5.65259437	     -3.62323935	    112.44064185	      1.96245941	      6.98799666	     -0.43546812	      0.00000000	      0.00000000	     33.19006952	    -13.19960925	     -5.85763236	     34.13021555	      0.59568464	    -10.39709969	      2.82686709	      0.00000000	      0.00000000	    -58.00405129	      6.04474933	      4.94091370	     58.36225173	    -27.37329282	     33.42023483	     74.00797976	     48.67474528	      0.00000000	      0.00000000	     57.66677149	    -38.91862090	     43.75534867	     77.77720421	     50.62635442	      0.00000000	      0.00000000
      7.57000000	    -19.49281734	     -6.98619402	     -0.10681830	      0.36494240	      1.18395049	     -0.23399270	      0.00000000	      0.50000000	      0.00000000	      0.25000000	     77.35517892	     -5.40741487	     -3.58955728	    112.27968586	      1.95965020	      7.58379100	     -0.40286905	      0.00000000	      0.00000000	     32.82657483	    -13.48969682	     -6.44303071	     34.14389756	      0.59592343	    -11.38082697	      3.13206686	      0.00000000	      0.00000000	    -58.08170640	      5.99942229	      5.14494449	     58.54321797	    -27.22491340	     33.38391907	     74.24966490	     48.71085175	      0.00000000	      0.00000000	     57.75103528	    -38.79446117	     43.53374363	     77.51832669	     50.56035573	      0.00000000	      0.00000000
